<?xml version="1.0" standalone="no"?>
<!DOCTYPE svg PUBLIC "-//W3C//DTD SVG 20010904//EN"
 "http://www.w3.org/TR/2001/REC-SVG-20010904/DTD/svg10.dtd">
<svg version="1.0" xmlns="http://www.w3.org/2000/svg"
 width="512.000000pt" height="512.000000pt" viewBox="0 0 512.000000 512.000000"
 preserveAspectRatio="xMidYMid meet">

<g transform="translate(0.000000,512.000000) scale(0.100000,-0.100000)"
fill="#03a9f3" stroke="none">
<path d="M1155 4786 c-67 -21 -100 -43 -148 -96 -90 -100 -82 105 -82 -2130 0
-1884 1 -1977 18 -2027 24 -70 93 -145 165 -180 l57 -28 1395 0 1395 0 57 28
c72 35 141 110 165 180 17 50 18 143 18 2027 0 1884 -1 1977 -18 2027 -24 70
-93 145 -165 180 l-57 28 -1380 2 c-1093 1 -1388 -1 -1420 -11z m1010 -611
c30 -29 33 -74 8 -103 -33 -37 -497 -425 -526 -440 -54 -27 -76 -6 -197 188
-61 96 -110 185 -110 197 0 35 42 76 78 76 43 0 62 -20 144 -150 39 -62 73
-113 77 -113 3 0 104 84 224 185 238 202 253 210 302 160z m1780 -210 c33 -33
32 -70 -4 -106 l-29 -29 -704 0 c-758 0 -740 -1 -766 54 -16 31 -2 79 27 96
10 6 301 10 734 10 l718 0 24 -25z m-1795 -680 c32 -16 46 -51 36 -88 -6 -26
-504 -454 -545 -469 -52 -20 -72 0 -190 188 -61 98 -111 189 -111 201 0 36 43
73 83 73 42 0 56 -15 142 -152 36 -60 70 -108 74 -108 3 0 101 80 218 179 116
98 217 181 224 184 24 9 39 7 69 -8z m1787 -210 c44 -31 37 -111 -13 -134 -18
-8 -227 -11 -730 -11 l-706 0 -29 29 c-31 32 -35 50 -17 84 25 48 2 46 758 47
615 0 719 -2 737 -15z m-1794 -687 c60 -31 63 -86 9 -137 -108 -102 -496 -422
-519 -427 -16 -4 -36 -2 -51 7 -32 18 -242 353 -242 386 0 33 42 73 78 73 43
0 63 -21 145 -152 l74 -117 216 184 c119 101 222 186 229 188 22 9 38 8 61 -5z
m1802 -223 c16 -15 25 -36 25 -55 0 -19 -9 -40 -25 -55 l-24 -25 -718 0 c-759
1 -736 -1 -761 47 -18 34 -14 52 17 84 l29 29 717 0 716 0 24 -25z m-1802
-677 c32 -17 46 -39 47 -72 0 -37 -15 -51 -313 -303 -241 -204 -259 -215 -306
-175 -26 21 -220 328 -228 361 -13 53 44 102 101 87 25 -6 61 -54 172 -234
l21 -34 207 177 c190 162 246 205 269 205 5 0 18 -5 30 -12z m1780 -210 c52
-27 62 -83 22 -123 l-24 -25 -715 0 c-393 0 -722 3 -731 6 -18 7 -45 55 -45
79 0 9 13 30 29 46 l29 29 707 0 c518 0 712 -3 728 -12z"/>
</g>
</svg>
