<?xml version="1.0" standalone="no"?>
<!DOCTYPE svg PUBLIC "-//W3C//DTD SVG 20010904//EN"
 "http://www.w3.org/TR/2001/REC-SVG-20010904/DTD/svg10.dtd">
<svg version="1.0" xmlns="http://www.w3.org/2000/svg"
 width="512.000000pt" height="512.000000pt" viewBox="0 0 512.000000 512.000000"
 preserveAspectRatio="xMidYMid meet">

<g transform="translate(0.000000,512.000000) scale(0.100000,-0.100000)"
fill="#03a9f3" stroke="none">
<path d="M1090 5115 c-8 -2 -49 -9 -90 -15 -160 -26 -361 -111 -493 -208 -241
-176 -409 -438 -473 -732 -26 -118 -26 -362 0 -480 104 -482 474 -845 961
-941 103 -21 349 -18 455 5 473 102 834 462 936 936 26 118 26 362 0 480 -101
467 -454 826 -916 931 -78 18 -338 35 -380 24z m-264 -761 c108 -52 109 -210
2 -265 -107 -55 -229 28 -215 147 11 104 118 163 213 118z m900 0 c108 -52
109 -210 2 -265 -107 -55 -229 28 -215 147 11 104 118 163 213 118z m-748
-633 c105 -84 189 -110 292 -90 56 11 106 37 173 91 22 18 41 23 87 23 54 0
62 -3 95 -35 78 -76 71 -157 -23 -240 -102 -91 -255 -150 -392 -150 -136 0
-290 59 -393 151 -61 54 -83 100 -72 155 6 37 56 101 89 115 35 15 115 4 144
-20z"/>
<path d="M2130 5107 c8 -8 40 -36 70 -63 241 -210 410 -502 481 -834 33 -150
33 -428 0 -580 -29 -137 -61 -232 -120 -356 -79 -166 -151 -265 -303 -417
l-137 -138 982 4 c958 3 984 4 1067 24 472 117 815 466 916 933 26 118 26 362
0 480 -101 467 -444 816 -916 933 -83 20 -109 21 -1070 24 -851 3 -983 2 -970
-10z"/>
<path d="M1090 2395 c-8 -2 -49 -9 -90 -15 -160 -26 -361 -111 -493 -208 -241
-176 -409 -438 -473 -732 -26 -118 -26 -362 0 -480 102 -473 444 -816 933
-937 61 -15 171 -17 1053 -20 851 -3 983 -2 970 10 -8 8 -40 36 -70 62 -238
206 -410 505 -481 835 -19 88 -23 136 -23 290 0 154 4 202 23 290 30 142 62
234 125 365 90 186 217 352 361 474 41 35 75 66 75 68 0 4 -1889 2 -1910 -2z"/>
<path d="M3790 2395 c-8 -2 -49 -9 -90 -15 -413 -67 -777 -376 -923 -785 -46
-131 -61 -227 -61 -395 0 -222 32 -360 132 -553 166 -324 477 -555 847 -628
103 -21 349 -18 455 5 357 77 660 306 822 623 100 193 132 331 132 553 0 222
-32 360 -132 553 -159 311 -455 539 -802 618 -78 18 -338 35 -380 24z m-264
-761 c108 -52 109 -210 2 -265 -107 -55 -229 28 -215 147 11 104 118 163 213
118z m900 0 c108 -52 109 -210 2 -265 -107 -55 -229 28 -215 147 11 104 118
163 213 118z m-325 -640 c132 -41 260 -143 274 -218 19 -99 -82 -194 -183
-171 -16 3 -47 21 -68 39 -75 64 -120 81 -214 81 -94 0 -139 -17 -214 -81 -65
-56 -139 -57 -201 -3 -69 61 -70 142 -4 214 139 151 388 208 610 139z"/>
</g>
</svg>
