<?xml version="1.0" standalone="no"?>
<!DOCTYPE svg PUBLIC "-//W3C//DTD SVG 20010904//EN"
 "http://www.w3.org/TR/2001/REC-SVG-20010904/DTD/svg10.dtd">
<svg version="1.0" xmlns="http://www.w3.org/2000/svg"
 width="512.000000pt" height="512.000000pt" viewBox="0 0 512.000000 512.000000"
 preserveAspectRatio="xMidYMid meet">

<g transform="translate(0.000000,512.000000) scale(0.100000,-0.100000)"
fill="#03a9f3" stroke="none">
<path d="M4118 4569 c-83 -12 -164 -54 -229 -119 -95 -94 -137 -207 -125 -336
l7 -71 -203 -159 c-112 -88 -209 -164 -216 -168 -7 -4 -35 4 -65 19 -154 75
-337 49 -462 -66 l-43 -39 -172 78 -173 77 -13 53 c-27 103 -90 190 -179 248
-77 49 -152 67 -254 62 -114 -6 -194 -43 -275 -127 -78 -83 -109 -152 -114
-263 l-4 -86 -224 -176 c-122 -97 -229 -179 -237 -182 -9 -3 -29 2 -45 10 -17
9 -61 20 -99 27 -174 28 -357 -70 -438 -235 -123 -252 36 -551 319 -598 221
-37 439 123 478 350 9 52 9 86 2 122 l-11 50 206 162 c113 89 211 165 218 170
7 6 29 0 60 -15 151 -76 325 -56 458 51 l60 48 168 -76 167 -75 10 -40 c18
-74 70 -162 126 -215 205 -194 546 -129 667 128 25 54 33 84 37 153 l5 87 220
174 c121 96 225 177 231 181 6 3 35 -3 64 -14 245 -93 513 65 562 330 9 46 9
77 -1 128 -42 237 -247 385 -483 352z"/>
<path d="M3844 2730 c-12 -4 -31 -21 -43 -36 l-21 -27 0 -1029 0 -1030 28 -28
c40 -39 69 -42 412 -38 322 3 332 5 358 64 9 18 12 295 12 1044 l0 1020 -29
32 -29 33 -334 2 c-183 1 -343 -2 -354 -7z"/>
<path d="M1694 2250 c-16 -5 -41 -21 -55 -36 l-24 -26 -2 -776 c-3 -837 -5
-805 50 -846 28 -20 39 -21 356 -21 365 0 368 0 397 70 21 51 21 1519 0 1570
-29 69 -34 70 -381 72 -170 1 -324 -2 -341 -7z"/>
<path d="M2748 1872 c-59 -36 -58 -27 -58 -651 0 -622 0 -621 56 -658 26 -16
55 -18 355 -18 317 0 328 1 356 21 54 40 53 25 53 652 0 640 1 625 -60 657
-24 12 -82 15 -352 15 -286 -1 -326 -2 -350 -18z"/>
<path d="M583 1331 c-17 -11 -37 -29 -42 -40 -16 -28 -15 -652 1 -685 26 -59
36 -61 358 -64 343 -4 372 -1 412 38 l28 28 0 336 0 336 -29 32 -29 33 -334 3
c-316 2 -335 1 -365 -17z"/>
</g>
</svg>
