<?xml version="1.0" standalone="no"?>
<!DOCTYPE svg PUBLIC "-//W3C//DTD SVG 20010904//EN"
 "http://www.w3.org/TR/2001/REC-SVG-20010904/DTD/svg10.dtd">
<svg version="1.0" xmlns="http://www.w3.org/2000/svg"
 width="512.000000pt" height="512.000000pt" viewBox="0 0 512.000000 512.000000"
 preserveAspectRatio="xMidYMid meet">

<g transform="translate(0.000000,512.000000) scale(0.100000,-0.100000)"
fill="#03a9f3" stroke="none">
<path d="M2046 5084 c-113 -27 -226 -114 -286 -220 -63 -110 -60 35 -60 -2371
l0 -2193 -787 0 c-769 0 -789 -1 -821 -20 -94 -57 -94 -183 0 -240 33 -20 56
-20 2463 -20 2294 0 2432 1 2464 18 101 51 106 183 9 242 -24 15 -51 20 -100
20 l-68 0 0 2193 c0 1923 -2 2200 -15 2256 -40 167 -187 309 -355 341 -34 6
-474 10 -1219 9 -973 -1 -1176 -3 -1225 -15z m2185 -567 c72 -48 70 -27 67
-649 -3 -545 -3 -557 -24 -585 -11 -15 -36 -36 -55 -45 -32 -17 -97 -18 -939
-18 -1009 0 -948 -4 -997 69 l-23 34 0 556 c0 537 1 557 20 589 11 18 34 41
52 52 32 19 53 20 949 20 l916 0 34 -23z m-3 -1597 c97 -59 92 -191 -9 -242
-31 -17 -82 -18 -624 -18 -571 0 -591 1 -623 20 -94 57 -94 183 0 240 32 19
52 20 628 20 576 0 596 -1 628 -20z m-1120 -560 c94 -57 94 -183 0 -240 -61
-37 -142 -16 -185 49 -78 116 66 264 185 191z m560 0 c94 -57 94 -183 0 -240
-61 -37 -142 -16 -185 49 -78 116 66 264 185 191z m560 0 c97 -59 92 -191 -9
-242 -66 -34 -138 -12 -179 54 -71 117 71 259 188 188z m-877 -563 c48 -32
352 -517 379 -605 79 -256 -74 -529 -337 -597 -244 -64 -503 91 -569 340 -20
73 -17 182 6 257 13 44 69 143 182 323 174 277 198 305 268 305 22 0 51 -9 71
-23z"/>
<path d="M2540 3880 l0 -380 740 0 740 0 0 380 0 380 -740 0 -740 0 0 -380z"/>
<path d="M3249 1368 c-160 -261 -159 -259 -159 -309 0 -85 38 -144 115 -180
73 -34 159 -15 217 47 35 38 48 74 48 133 0 50 1 48 -159 309 -14 23 -28 42
-31 42 -3 0 -17 -19 -31 -42z"/>
<path d="M1204 4675 c-27 -14 -222 -130 -434 -258 -292 -176 -390 -240 -407
-266 l-23 -34 0 -881 c0 -966 0 -956 60 -1060 35 -61 118 -144 180 -179 68
-39 159 -57 295 -57 105 0 127 -3 165 -23 132 -66 132 -248 0 -315 -43 -21
-54 -22 -325 -22 -215 0 -295 -4 -344 -15 -229 -54 -382 -285 -343 -517 31
-182 168 -331 343 -373 53 -12 152 -15 557 -15 l492 0 0 140 0 140 -488 0
c-486 0 -488 0 -532 23 -132 66 -132 248 0 315 43 21 54 22 321 22 152 0 301
5 330 10 180 34 329 190 361 377 40 239 -126 479 -361 523 -29 5 -105 10 -168
10 -155 0 -206 22 -244 105 -17 37 -19 75 -19 508 l0 467 113 0 c124 0 194 15
261 54 61 36 131 117 158 184 22 55 23 67 26 429 l3 371 94 56 c51 31 102 67
113 81 52 66 27 170 -50 205 -56 26 -74 25 -134 -5z m-315 -1038 c-19 -45 -55
-57 -169 -57 l-100 0 2 212 3 212 135 81 135 81 3 -250 c2 -173 -1 -260 -9
-279z"/>
</g>
</svg>
