<?xml version="1.0" standalone="no"?>
<!DOCTYPE svg PUBLIC "-//W3C//DTD SVG 20010904//EN"
 "http://www.w3.org/TR/2001/REC-SVG-20010904/DTD/svg10.dtd">
<svg version="1.0" xmlns="http://www.w3.org/2000/svg"
 width="512.000000pt" height="512.000000pt" viewBox="0 0 512.000000 512.000000"
 preserveAspectRatio="xMidYMid meet">

<g transform="translate(0.000000,512.000000) scale(0.100000,-0.100000)"
fill="#03a9f3" stroke="none">
<path d="M541 5109 c-129 -25 -267 -132 -326 -253 -19 -39 -40 -95 -45 -125
-14 -75 -14 -4269 0 -4342 25 -131 131 -274 248 -333 115 -58 31 -56 1818 -56
1051 0 1661 4 1695 10 182 34 344 196 379 379 6 34 10 339 10 815 l0 761 -592
-592 c-471 -470 -600 -593 -628 -601 -19 -5 -163 -35 -320 -67 -319 -64 -339
-64 -399 -4 -61 61 -61 76 3 394 32 157 62 302 68 323 8 31 164 192 939 967
l929 930 0 681 c0 422 -4 702 -10 735 -26 138 -129 273 -254 334 -39 19 -95
40 -125 45 -67 12 -3326 12 -3390 -1z m1145 -655 c15 -11 37 -33 48 -48 20
-27 21 -39 21 -406 0 -367 -1 -379 -21 -406 -11 -15 -33 -37 -48 -48 -27 -20
-39 -21 -406 -21 -367 0 -379 1 -406 21 -15 11 -37 33 -48 48 -20 26 -21 42
-24 379 -2 194 0 366 3 384 7 40 49 91 90 109 24 11 107 13 397 11 353 -2 368
-3 394 -23z m1920 0 c53 -39 69 -71 69 -134 0 -63 -16 -95 -69 -134 -27 -21
-39 -21 -704 -24 -457 -2 -689 0 -714 8 -101 29 -140 168 -71 251 51 61 25 59
775 56 676 -2 687 -2 714 -23z m-320 -640 c53 -39 69 -71 69 -134 0 -63 -16
-95 -69 -134 -27 -20 -40 -21 -544 -24 -345 -2 -529 0 -554 8 -101 29 -140
168 -71 251 51 60 39 59 615 56 514 -2 527 -2 554 -23z m-1600 -640 c15 -11
37 -33 48 -48 20 -27 21 -39 21 -406 0 -367 -1 -379 -21 -406 -11 -15 -33 -37
-48 -48 -27 -20 -39 -21 -406 -21 -367 0 -379 1 -406 21 -15 11 -37 33 -48 48
-20 26 -21 42 -24 379 -2 194 0 366 3 384 7 40 49 91 90 109 24 11 107 13 397
11 353 -2 368 -3 394 -23z m1920 0 c53 -39 69 -71 69 -134 0 -63 -16 -95 -69
-134 -27 -21 -39 -21 -704 -24 -457 -2 -689 0 -714 8 -101 29 -140 168 -71
251 51 61 25 59 775 56 676 -2 687 -2 714 -23z m-640 -640 c53 -39 69 -71 69
-134 0 -63 -16 -95 -69 -134 -26 -20 -42 -21 -384 -24 -234 -2 -370 1 -394 8
-101 29 -140 168 -71 251 50 58 53 59 455 56 353 -2 368 -3 394 -23z m-1280
-640 c15 -11 37 -33 48 -48 20 -27 21 -39 21 -406 0 -367 -1 -379 -21 -406
-11 -15 -33 -37 -48 -48 -27 -20 -39 -21 -406 -21 -367 0 -379 1 -406 21 -15
11 -37 33 -48 48 -20 26 -21 42 -24 379 -2 194 0 366 3 384 7 40 49 91 90 109
24 11 107 13 397 11 353 -2 368 -3 394 -23z m800 0 c53 -39 69 -71 69 -134 0
-63 -16 -95 -69 -134 -23 -18 -45 -22 -144 -24 -137 -4 -179 6 -221 53 -52 59
-54 147 -4 206 44 52 73 59 215 57 110 -3 130 -6 154 -24z"/>
<path d="M1120 4000 l0 -160 160 0 160 0 0 160 0 160 -160 0 -160 0 0 -160z"/>
<path d="M1120 2720 l0 -160 160 0 160 0 0 160 0 160 -160 0 -160 0 0 -160z"/>
<path d="M1120 1440 l0 -160 160 0 160 0 0 160 0 160 -160 0 -160 0 0 -160z"/>
<path d="M4565 3101 c-16 -10 -57 -46 -90 -80 l-60 -61 113 -112 112 -113 66
65 c72 71 94 110 94 166 0 113 -141 194 -235 135z"/>
<path d="M3620 2165 l-565 -565 113 -112 112 -113 567 567 568 568 -110 110
c-60 60 -112 110 -115 110 -3 0 -259 -254 -570 -565z"/>
<path d="M2788 1333 c-34 -35 -38 -48 -63 -171 -15 -74 -24 -136 -21 -139 2
-3 64 7 137 21 128 25 135 27 173 66 l41 40 -110 110 c-60 60 -112 110 -115
110 -3 0 -22 -17 -42 -37z"/>
</g>
</svg>
