<?xml version="1.0" standalone="no"?>
<!DOCTYPE svg PUBLIC "-//W3C//DTD SVG 20010904//EN"
 "http://www.w3.org/TR/2001/REC-SVG-20010904/DTD/svg10.dtd">
<svg version="1.0" xmlns="http://www.w3.org/2000/svg"
 width="512.000000pt" height="512.000000pt" viewBox="0 0 512.000000 512.000000"
 preserveAspectRatio="xMidYMid meet">

<g transform="translate(0.000000,512.000000) scale(0.100000,-0.100000)"
fill="#03a9f3" stroke="none">
<path d="M1200 4210 l0 -600 -600 0 -600 0 0 -1650 0 -1650 1650 0 1650 0 0
453 0 452 -162 1 c-174 1 -255 13 -403 61 -209 68 -376 172 -540 337 -158 159
-258 320 -324 520 -52 159 -66 244 -66 426 0 182 14 267 66 426 66 200 165
360 324 520 162 164 331 269 540 337 148 48 229 60 403 61 l162 1 0 452 0 453
-1050 0 -1050 0 0 -600z m151 -1047 c54 -54 99 -103 99 -108 0 -6 -157 -168
-350 -360 l-350 -350 -200 200 c-110 110 -200 203 -200 208 0 11 193 207 204
207 6 0 52 -42 103 -92 l93 -93 243 243 c133 133 246 242 251 242 4 0 53 -44
107 -97z m-1 -900 c55 -54 100 -102 100 -108 0 -5 -157 -168 -350 -360 l-350
-350 -200 200 c-110 110 -200 203 -200 208 0 11 193 207 205 207 5 0 51 -42
102 -92 l93 -93 243 243 c133 133 245 242 250 242 4 0 52 -44 107 -97z m1
-903 c55 -55 99 -103 99 -107 0 -5 -157 -166 -350 -358 l-350 -350 -200 200
c-110 110 -200 204 -200 209 0 13 192 206 204 206 6 0 52 -42 103 -92 l93 -93
243 243 c133 133 246 242 251 242 4 0 53 -45 107 -100z"/>
<path d="M490 4315 l-405 -405 408 0 407 0 0 405 c0 223 -1 405 -3 405 -1 0
-184 -182 -407 -405z"/>
<path d="M3020 3604 c-222 -29 -455 -145 -615 -308 -136 -138 -225 -297 -276
-491 -34 -129 -34 -360 0 -488 103 -396 382 -675 778 -778 74 -20 113 -23 243
-23 134 1 168 4 252 27 109 29 237 85 319 141 l54 36 565 -565 565 -565 108
107 107 108 -565 565 -565 565 36 54 c56 82 112 210 141 319 23 84 26 118 27
252 0 130 -3 169 -23 243 -102 394 -383 677 -771 776 -84 22 -296 35 -380 25z"/>
</g>
</svg>
