<?xml version="1.0" standalone="no"?>
<!DOCTYPE svg PUBLIC "-//W3C//DTD SVG 20010904//EN"
 "http://www.w3.org/TR/2001/REC-SVG-20010904/DTD/svg10.dtd">
<svg version="1.0" xmlns="http://www.w3.org/2000/svg"
 width="512.000000pt" height="512.000000pt" viewBox="0 0 512.000000 512.000000"
 preserveAspectRatio="xMidYMid meet">

<g transform="translate(0.000000,512.000000) scale(0.100000,-0.100000)"
fill="#03a9f3" stroke="none">
<path d="M1450 4625 c-229 -47 -417 -179 -539 -380 -74 -121 -111 -273 -111
-449 l0 -113 -91 -5 c-78 -5 -100 -11 -163 -42 -88 -43 -146 -102 -189 -194
l-32 -67 0 -277 c0 -264 1 -278 21 -304 39 -53 71 -69 134 -69 63 0 95 16 134
69 20 25 21 45 26 278 5 248 5 250 29 269 16 13 39 19 77 19 l54 0 0 -833 c0
-538 4 -854 11 -893 31 -178 120 -339 252 -461 l55 -50 4 -204 c3 -187 5 -208
26 -249 35 -71 75 -114 144 -151 l63 -34 165 0 165 0 63 34 c70 38 101 70 139
145 23 45 27 66 31 174 l4 122 638 0 638 0 4 -122 c4 -100 9 -132 26 -168 34
-71 75 -113 144 -151 l63 -34 165 0 165 0 63 34 c70 38 100 69 140 145 26 50
27 57 30 255 l4 203 64 61 c76 71 161 195 198 290 56 141 56 148 56 1053 l0
834 54 0 c38 0 61 -6 77 -19 24 -19 24 -21 29 -269 5 -233 6 -253 26 -278 39
-53 71 -69 134 -69 63 0 95 16 134 69 20 26 21 40 21 305 l0 277 -37 76 c-70
140 -187 216 -348 226 l-88 5 -5 146 c-7 197 -39 310 -126 443 -114 174 -261
280 -481 346 -50 15 -160 17 -1125 19 -855 1 -1083 -1 -1135 -12z m2360 -653
c72 -35 114 -75 151 -144 l34 -63 0 -515 c0 -586 2 -571 -84 -663 -79 -85
-122 -97 -466 -136 -335 -38 -493 -46 -890 -45 -393 0 -534 7 -873 45 -355 39
-395 51 -479 141 -79 87 -78 76 -78 658 l0 515 25 50 c43 86 125 154 215 176
17 4 563 6 1215 6 l1185 -2 45 -23z m-2216 -2064 c86 -26 166 -136 166 -228 0
-124 -116 -240 -240 -240 -124 0 -240 116 -240 240 0 63 23 114 75 165 70 71
145 90 239 63z m2080 0 c86 -26 166 -136 166 -228 0 -124 -116 -240 -240 -240
-124 0 -240 116 -240 240 0 63 23 114 75 165 70 71 145 90 239 63z"/>
</g>
</svg>
