<?xml version="1.0" encoding="UTF-8"?>
<!DOCTYPE svg PUBLIC "-//W3C//DTD SVG 1.1//EN" "http://www.w3.org/Graphics/SVG/1.1/DTD/svg11.dtd">
<svg xmlns="http://www.w3.org/2000/svg" version="1.1" width="512px" height="512px" style="shape-rendering:geometricPrecision; text-rendering:geometricPrecision; image-rendering:optimizeQuality; fill-rule:evenodd; clip-rule:evenodd" xmlns:xlink="http://www.w3.org/1999/xlink">
<g><path style="opacity:0.979" fill="#03a9f3" d="M 275.5,19.5 C 290.504,19.3334 305.504,19.5001 320.5,20C 324.33,28.6578 327.663,37.4911 330.5,46.5C 344.838,49.2804 358.172,54.6137 370.5,62.5C 378.541,59.0972 386.541,55.5972 394.5,52C 395.833,51.3333 397.167,51.3333 398.5,52C 408.681,62.0141 418.681,72.1808 428.5,82.5C 424.628,91.0758 420.628,99.5758 416.5,108C 424.049,120.27 429.549,133.437 433,147.5C 441.521,151.425 450.188,155.091 459,158.5C 459.833,173.511 459.666,188.511 458.5,203.5C 449.743,206.692 441.243,210.359 433,214.5C 429.632,228.276 424.132,241.109 416.5,253C 420.355,261.877 424.355,270.711 428.5,279.5C 426.684,281.817 424.684,283.984 422.5,286C 410.076,287.53 398.41,291.363 387.5,297.5C 383.673,295.754 380.007,293.754 376.5,291.5C 373.687,271.017 362.021,260.35 341.5,259.5C 341.745,254.538 341.078,249.705 339.5,245C 371.956,219.956 381.123,188.123 367,149.5C 347.705,114.169 318.205,100.335 278.5,108C 247.719,117.949 229.052,138.783 222.5,170.5C 212.703,174.131 205.203,180.465 200,189.5C 182.519,179.76 165.186,169.76 148,159.5C 147.257,157.559 147.424,155.726 148.5,154C 153.941,152.418 158.941,150.085 163.5,147C 167.169,133.327 172.503,120.327 179.5,108C 175.24,99.3368 171.74,90.5034 169,81.5C 178.833,71.6667 188.667,61.8333 198.5,52C 207.825,54.3161 216.825,57.8161 225.5,62.5C 238.014,55.0784 251.347,49.5784 265.5,46C 269.254,37.3254 272.587,28.492 275.5,19.5 Z"/></g>
<g><path style="opacity:0.962" fill="#03a9f3" d="M 68.5,105.5 C 97.084,104.942 117.251,117.608 129,143.5C 131.623,151.28 132.956,159.28 133,167.5C 146.5,175.667 160,183.833 173.5,192C 163.699,193.735 154.699,197.402 146.5,203C 139.385,210.132 132.885,217.632 127,225.5C 119.69,222.013 112.69,218.013 106,213.5C 79.1366,228.747 54.1366,226.081 31,205.5C 15.9407,187.919 11.6074,167.919 18,145.5C 27.0431,122.286 43.8764,108.953 68.5,105.5 Z M 72.5,134.5 C 81.9697,138.821 91.1364,143.821 100,149.5C 100.667,159.5 100.667,169.5 100,179.5C 91.4806,184.76 82.814,189.76 74,194.5C 65.2752,190.221 56.7752,185.555 48.5,180.5C 47.1667,169.833 47.1667,159.167 48.5,148.5C 56.7988,144.169 64.7988,139.503 72.5,134.5 Z"/></g>
<g><path style="opacity:0.916" fill="#03a9f3" d="M 226.5,184.5 C 241.313,184.479 247.813,191.813 246,206.5C 244.627,209.412 243.127,212.246 241.5,215C 239.711,215.52 238.044,215.187 236.5,214C 228.369,209.365 220.369,204.532 212.5,199.5C 215.184,192.488 219.85,187.488 226.5,184.5 Z"/></g>
<g><path style="opacity:0.924" fill="#03a9f3" d="M 274.5,199.5 C 286.197,199.198 292.53,204.864 293.5,216.5C 289.166,228.168 283.499,239.168 276.5,249.5C 273.632,244.099 270.465,238.765 267,233.5C 262.786,229.618 258.286,226.118 253.5,223C 257.377,217.415 260.877,211.582 264,205.5C 267.069,202.554 270.569,200.554 274.5,199.5 Z"/></g>
<g><path style="opacity:0.977" fill="#03a9f3" d="M 171.5,207.5 C 181.766,206.678 191.766,207.844 201.5,211C 217.5,220 233.5,229 249.5,238C 260.802,245.795 264.302,256.295 260,269.5C 252.285,283.649 240.785,287.816 225.5,282C 210.69,272.845 195.523,264.345 180,256.5C 172.946,258.922 171.279,263.255 175,269.5C 184.59,274.709 193.756,280.542 202.5,287C 216.453,299.619 219.286,314.452 211,331.5C 208.333,336.167 205.667,340.833 203,345.5C 202.329,353.159 205.829,356.326 213.5,355C 227.347,338.962 233.014,320.462 230.5,299.5C 237.745,300.072 244.745,299.072 251.5,296.5C 254.084,322.755 268.418,334.089 294.5,330.5C 299.389,347.307 310.723,355.974 328.5,356.5C 322.051,375.73 313.218,393.73 302,410.5C 290.662,423.921 276.495,432.921 259.5,437.5C 216.5,412.667 173.5,387.833 130.5,363C 129.426,362.261 128.759,361.261 128.5,360C 131.381,352.77 132.214,345.27 131,337.5C 126.059,323.01 121.726,308.344 118,293.5C 116.029,279.019 119.029,265.685 127,253.5C 134.753,241.66 142.753,229.993 151,218.5C 157.126,213.356 163.959,209.689 171.5,207.5 Z"/></g>
<g><path style="opacity:0.951" fill="#03a9f3" d="M 304.5,238.5 C 321.132,237.625 327.965,245.291 325,261.5C 315.414,277.671 306.08,294.004 297,310.5C 290.867,316.537 283.7,318.037 275.5,315C 268.286,310.037 265.786,303.203 268,294.5C 277.08,278.004 286.414,261.671 296,245.5C 298.441,242.546 301.275,240.213 304.5,238.5 Z"/></g>
<g><path style="opacity:0.947" fill="#03a9f3" d="M 339.5,274.5 C 354.315,273.814 361.148,280.814 360,295.5C 353.434,308.401 346.434,321.068 339,333.5C 329.635,342.772 320.302,342.772 311,333.5C 308.78,329.405 308.113,325.072 309,320.5C 315.811,306.877 323.145,293.544 331,280.5C 333.637,278.109 336.47,276.109 339.5,274.5 Z"/></g>
<g><path style="opacity:0.964" fill="#03a9f3" d="M 420.5,301.5 C 460.364,300.486 485.197,319.153 495,357.5C 495.667,362.833 495.667,368.167 495,373.5C 475.502,362.419 456.169,351.086 437,339.5C 427.333,345.167 417.667,350.833 408,356.5C 407.333,368.167 407.333,379.833 408,391.5C 427.297,402.634 446.464,413.967 465.5,425.5C 447.843,436.707 428.843,439.54 408.5,434C 380.973,424.475 365.14,405.308 361,376.5C 360.198,371.581 360.365,366.748 361.5,362C 355.47,357.989 349.47,353.989 343.5,350C 347.397,346.769 350.564,342.936 353,338.5C 358.788,327.753 364.955,317.253 371.5,307C 377.081,308.69 382.414,311.19 387.5,314.5C 397.621,307.594 408.621,303.261 420.5,301.5 Z"/></g>
<g><path style="opacity:0.963" fill="#03a9f3" d="M 119.5,378.5 C 124.947,377.826 129.947,378.992 134.5,382C 170.67,403.253 207.003,424.253 243.5,445C 247.966,448.099 249.466,452.265 248,457.5C 242.734,467.757 237.067,477.757 231,487.5C 227.604,491.203 223.437,492.369 218.5,491C 180.004,469.253 141.67,447.253 103.5,425C 98.728,421.301 97.228,416.467 99,410.5C 104,401.833 109,393.167 114,384.5C 115.36,381.977 117.193,379.977 119.5,378.5 Z M 129.5,400.5 C 138.963,401.444 142.463,406.444 140,415.5C 133.079,422.567 127.079,421.9 122,413.5C 120.953,407.061 123.453,402.728 129.5,400.5 Z"/></g>
</svg>
