<svg height="512" viewBox="0 0 60 57" width="512" xmlns="http://www.w3.org/2000/svg"><g id="Page-1" fill="none" fill-rule="evenodd"><g id="009---Bell" fill-rule="nonzero"><path id="Shape" d="m21 51h35.5c1.3807119 0 2.5 1.1192881 2.5 2.5s-1.1192881 2.5-2.5 2.5h-53c-1.38071187 0-2.5-1.1192881-2.5-2.5s1.11928813-2.5 2.5-2.5z" fill="#ffdc00"/><path id="Shape" d="m56.5 51h-3c1.3807119 0 2.5 1.1192881 2.5 2.5s-1.1192881 2.5-2.5 2.5h3c1.3807119 0 2.5-1.1192881 2.5-2.5s-1.1192881-2.5-2.5-2.5z" fill="#fec108"/><path id="Shape" d="m56 51c-.0167558-.7623441-.1562089-1.5170114-.413-2.235-.2430636-.7183338-.6593251-1.3657373-1.212-1.885-.736-.674-1.712-.971-2.443-1.686-1.34-1.312-1.677-3.084-2.419-4.735-.47-1.046-1.18-2.459-2.513-2.459h-34c-1.333 0-2.043 1.413-2.513 2.459-.742 1.651-1.079 3.423-2.419 4.735-.731.715-1.707 1.012-2.443 1.686-.55267491.5192627-.96893644 1.1666662-1.212 1.885-.25679112.7179886-.39624418 1.4726559-.413 2.235z" fill="#ff9801"/><path id="Shape" d="m55.587 48.765c-.2430636-.7183338-.6593251-1.3657373-1.212-1.885-.736-.674-1.712-.971-2.443-1.686-1.34-1.312-1.677-3.084-2.419-4.735-.47-1.046-1.18-2.459-2.513-2.459h-3c1.333 0 2.043 1.413 2.513 2.459.742 1.651 1.079 3.423 2.419 4.735.731.715 1.707 1.012 2.443 1.686.5526749.5192627.9689364 1.1666662 1.212 1.885.2572994.7178516.3967678 1.4726022.413 2.235h3c-.0162322-.7623978-.1557006-1.5171484-.413-2.235z" fill="#f57c00"/><path id="Shape" d="m40 32h9c1.6568542 0 3 1.3431458 3 3s-1.3431458 3-3 3h-38c-1.65685425 0-3-1.3431458-3-3s1.34314575-3 3-3z" fill="#ffdc00"/><path id="Shape" d="m49 32h-3c1.6568542 0 3 1.3431458 3 3s-1.3431458 3-3 3h3c1.6568542 0 3-1.3431458 3-3s-1.3431458-3-3-3z" fill="#fec108"/><path id="Shape" d="m49 32h-38c0-7.45 6.88-13.63 15.9-14.8 2.0580645-.2666667 4.1419355-.2666667 6.2 0 9.02 1.17 15.9 7.35 15.9 14.8z" fill="#ffeb3a"/><path id="Shape" d="m30 17c-.506 0-1 .029-1.5.06 9.787.606 17.5 7.06 17.5 14.94h3c0-8.28-8.51-15-19-15z" fill="#fdd834"/><path id="Shape" d="m33.53 13.52c-.0000295.1504986-.0100516.3008293-.03.45l-.4 3.23c-2.0580645-.2666667-4.1419355-.2666667-6.2 0l-.4-3.23c-.1650723-1.3027313.4068337-2.5893839 1.4844839-3.3397358 1.0776501-.75035184 2.4828053-.84029776 3.6473304-.2334706 1.164525.6068271 1.8958121 1.8100605 1.8981857 3.1232064z" fill="#ffdc00"/><path id="Shape" d="m16.051 29.028c-.3528216-.0002875-.6793814-.1864787-.8593351-.4899582s-.1866666-.6793297-.0176649-.9890418c1.9-3.474 5.9-6.14 10.706-7.131.3538169-.0811652.7238327.0357833.9667331.3055491.2429004.2697659.3205344.6499785.2028329.9933741s-.4122519.5960392-.769566.6600768c-4.237.873-7.734 3.165-9.354 6.131-.1750374.319908-.5103378.5191723-.875.52z" fill="#f5f5f5"/><g fill="#000"><path id="Shape" d="m56.905 50.041c-.0708934-.5471951-.1965228-1.0858944-.375-1.608-.2955579-.8741284-.8038011-1.6610633-1.479-2.29-.4130177-.3575243-.8644491-.668093-1.346-.926-.3864829-.2012247-.7468376-.4490736-1.073-.738-.7568588-.8606174-1.3141498-1.8778783-1.632-2.979-.181-.484-.363-.971-.578-1.448-.1726404-.3916812-.3672842-.7732899-.583-1.143 1.8218424-.3894147 3.1317157-1.9877446 3.1556566-3.8505867.0239409-1.862842-1.2444236-3.494307-3.0556566-3.9304133-.5-7.274-7.07-13.269-15.734-14.761l.28-2.265c.2202939-1.7393444-.5835357-3.4495008-2.0633262-4.38974983-1.4797906-.94024901-3.3694401-.94151116-4.8504854-.00323977-1.4810452.9382714-2.2871586 2.6473525-2.0691884 4.3869896l.281 2.271c-8.664 1.492-15.238 7.487-15.734 14.761-1.81067411.4369969-3.07828004 2.0683839-3.0543465 3.9308914.02393353 1.8625075 1.33304116 3.4607833 3.1543465 3.8511086-.21560834.3692624-.4099255.7505514-.582 1.142-.215.477-.4.964-.578 1.448-.31662987 1.1016842-.87251879 2.1199033-1.628 2.982-.32669559.2887098-.68735336.5365361-1.074.738-.48114174.2576771-.93223078.5679056-1.345.925-.67518997.6285465-1.18344604 1.4151579-1.479 2.289-.1739752.5219663-.29557437 1.0599505-.363 1.606-1.84193703.2077189-3.20039558 1.8187539-3.09404162 3.6693127.10635396 1.8505589 1.64043504 3.2953559 3.49404162 3.2906873h53c.9282342-.0011655 1.8184575-.3688274 2.477-1.023.9477449-.9472526 1.269467-2.3534875.8278722-3.6185969s-1.5685237-2.1656831-2.8998722-2.3174031zm-29.413-36.2c-.0968077-.718868.1256974-1.4441105.609-1.985.7333527-.8348494 1.9258813-1.0929332 2.9387968-.6360065 1.0129154.4569267 1.6086947 1.5217171 1.4682032 2.6240065l-.28 2.259c-.728-.063-1.474-.103-2.228-.103s-1.5.04-2.228.106zm-18.492 21.159c0-1.1045695.8954305-2 2-2h22c.5522847 0 1-.4477153 1-1s-.4477153-1-1-1h-20.935c.664-7.253 8.444-13 17.935-13s17.271 5.747 17.935 13h-7.935c-.5522847 0-1 .4477153-1 1s.4477153 1 1 1h9c1.1045695 0 2 .8954305 2 2s-.8954305 2-2 2h-38c-1.1045695 0-2-.8954305-2-2zm48.562 19.563c-.2824476.2801252-.6641976.4372107-1.062.437h-53c-.82842712 0-1.5-.6715729-1.5-1.5s.67157288-1.5 1.5-1.5h10.5c.5522847 0 1-.4477153 1-1s-.4477153-1-1-1h-8.886c.05833589-.3055633.13922382-.6063862.242-.9.18697649-.5648919.51135745-1.0744862.944-1.483.30876729-.2576958.64397207-.4819478 1-.669.53263487-.2825871 1.02697241-.6320847 1.471-1.04.97435717-1.0602925 1.6927478-2.3297913 2.1-3.711.166-.444.332-.89.529-1.328.435-.969.931-1.869 1.6-1.869h34c.669 0 1.165.9 1.6 1.869.2.438.363.884.529 1.328.4071455 1.3815506 1.1255397 2.651398 2.1 3.712.443769.4075026.9377654.7566606 1.47 1.039.3560965.1873287.691307.4119197 1 .67.4326086.4083338.7572852.9175092.945 1.482.1022188.2937076.182768.5945137.241.9h-33.885c-.5522847 0-1 .4477153-1 1s.4477153 1 1 1h35.5c.6079673-.0014954 1.1567088.3641377 1.3894378.9257993.2327291.5616615.1034115 1.2082539-.3274378 1.6372007z"/><path id="Shape" d="m2 30h5c.55228475 0 1-.4477153 1-1s-.44771525-1-1-1h-5c-.55228475 0-1 .4477153-1 1s.44771525 1 1 1z"/><path id="Shape" d="m52 29c0 .5522847.4477153 1 1 1h5c.5522847 0 1-.4477153 1-1s-.4477153-1-1-1h-5c-.5522847 0-1 .4477153-1 1z"/><path id="Shape" d="m5.251 15.866 4.33 2.5c.30957042.1814844.6926495.1831833 1.0038174.0044519.311168-.1787315.5027136-.5104885.5019247-.8693336s-.1937913-.6897567-.5057421-.8671183l-4.33-2.5c-.47785996-.2716903-1.08542045-.1067416-1.36027453.3693057s-.11393908 1.0846885.36027453 1.3626943z"/><path id="Shape" d="m49.92 18.5c.1755887.0003718.3481299-.0458692.5-.134l4.33-2.5c.4742136-.2780058.6351286-.886647.3602745-1.3626943-.274854-.4760473-.8824145-.640996-1.3602745-.3693057l-4.33 2.5c-.3919413.2263139-.5830208.6876562-.4658809 1.1248223.1171398.4371661.5132928.7411578.9658809.7411777z"/><path id="Shape" d="m17.634 9.582c.1773616.31195078.5082732.5049532.8671183.5057421s.6906021-.19075673.8693336-.50192468c.1787314-.31116795.1770325-.694247-.0044519-1.00381742l-2.5-4.331c-.1773616-.31195078-.5082732-.50495322-.8671183-.5057421-.3588451-.00078889-.6906021.19075673-.8693336.50192468-.1787314.31116795-.1770325.694247.0044519 1.00381742z"/><path id="Shape" d="m41 9.948c.4782803.2761293 1.0898496.1122682 1.366-.366l2.5-4.331c.1814844-.30957042.1831833-.69264947.0044519-1.00381742-.1787315-.31116795-.5104885-.50271357-.8693336-.50192468-.3588451.00078888-.6897567.19379132-.8671183.5057421l-2.5 4.331c-.2761293.47828031-.1122682 1.08984962.366 1.366z"/><path id="Shape" d="m30 7c.5522847 0 1-.44771525 1-1v-5c0-.55228475-.4477153-1-1-1s-1 .44771525-1 1v5c0 .55228475.4477153 1 1 1z"/></g></g></g></svg>